<mxfile host="65bd71144e">
    <diagram id="C5RBs43oDa-KdzZeNtuy" name="Page-1">
        <mxGraphModel dx="1406" dy="779" grid="1" gridSize="10" guides="1" tooltips="1" connect="1" arrows="1" fold="1" page="1" pageScale="1" pageWidth="1000" pageHeight="1169" math="0" shadow="0">
            <root>
                <mxCell id="WIyWlLk6GJQsqaUBKTNV-0"/>
                <mxCell id="WIyWlLk6GJQsqaUBKTNV-1" parent="WIyWlLk6GJQsqaUBKTNV-0"/>
                <mxCell id="q7pYmEnO_Y2Cruu0NZZ4-0" value="GameBoard" style="swimlane;fontStyle=1;align=center;verticalAlign=top;childLayout=stackLayout;horizontal=1;startSize=30;horizontalStack=0;resizeParent=1;resizeLast=0;collapsible=1;marginBottom=0;rounded=0;shadow=0;strokeWidth=1;" parent="WIyWlLk6GJQsqaUBKTNV-1" vertex="1">
                    <mxGeometry x="130" y="1806" width="180" height="194" as="geometry">
                        <mxRectangle x="120" y="360" width="160" height="26" as="alternateBounds"/>
                    </mxGeometry>
                </mxCell>
                <mxCell id="q7pYmEnO_Y2Cruu0NZZ4-2" value="code: number" style="text;align=left;verticalAlign=top;spacingLeft=4;spacingRight=4;overflow=hidden;rotatable=0;points=[[0,0.5],[1,0.5]];portConstraint=eastwest;rounded=0;shadow=0;html=0;" parent="q7pYmEnO_Y2Cruu0NZZ4-0" vertex="1">
                    <mxGeometry y="30" width="180" height="26" as="geometry"/>
                </mxCell>
                <mxCell id="52" value="normalForm: number" style="text;strokeColor=none;fillColor=none;align=left;verticalAlign=top;spacingLeft=4;spacingRight=4;overflow=hidden;rotatable=0;points=[[0,0.5],[1,0.5]];portConstraint=eastwest;" parent="q7pYmEnO_Y2Cruu0NZZ4-0" vertex="1">
                    <mxGeometry y="56" width="180" height="26" as="geometry"/>
                </mxCell>
                <mxCell id="q7pYmEnO_Y2Cruu0NZZ4-3" value="" style="line;html=1;strokeWidth=1;align=left;verticalAlign=middle;spacingTop=-1;spacingLeft=3;spacingRight=3;rotatable=0;labelPosition=right;points=[];portConstraint=eastwest;rounded=0;" parent="q7pYmEnO_Y2Cruu0NZZ4-0" vertex="1">
                    <mxGeometry y="82" width="180" height="8" as="geometry"/>
                </mxCell>
                <mxCell id="q7pYmEnO_Y2Cruu0NZZ4-4" value="clone(): [[FieldType]]" style="text;align=left;verticalAlign=top;spacingLeft=4;spacingRight=4;overflow=hidden;rotatable=0;points=[[0,0.5],[1,0.5]];portConstraint=eastwest;fontStyle=0;rounded=0;" parent="q7pYmEnO_Y2Cruu0NZZ4-0" vertex="1">
                    <mxGeometry y="90" width="180" height="26" as="geometry"/>
                </mxCell>
                <mxCell id="q7pYmEnO_Y2Cruu0NZZ4-5" value="calculateCode(): void" style="text;strokeColor=none;fillColor=none;align=left;verticalAlign=top;spacingLeft=4;spacingRight=4;overflow=hidden;rotatable=0;points=[[0,0.5],[1,0.5]];portConstraint=eastwest;fontFamily=Helvetica;fontSize=11;fontColor=default;rounded=0;" parent="q7pYmEnO_Y2Cruu0NZZ4-0" vertex="1">
                    <mxGeometry y="116" width="180" height="26" as="geometry"/>
                </mxCell>
                <mxCell id="65" value="equivTo(GameBoard): boolean" style="text;strokeColor=none;fillColor=none;align=left;verticalAlign=top;spacingLeft=4;spacingRight=4;overflow=hidden;rotatable=0;points=[[0,0.5],[1,0.5]];portConstraint=eastwest;" parent="q7pYmEnO_Y2Cruu0NZZ4-0" vertex="1">
                    <mxGeometry y="142" width="180" height="26" as="geometry"/>
                </mxCell>
                <mxCell id="q7pYmEnO_Y2Cruu0NZZ4-6" value="toString(): String" style="text;strokeColor=none;fillColor=none;align=left;verticalAlign=top;spacingLeft=4;spacingRight=4;overflow=hidden;rotatable=0;points=[[0,0.5],[1,0.5]];portConstraint=eastwest;fontFamily=Helvetica;fontSize=11;fontColor=default;rounded=0;" parent="q7pYmEnO_Y2Cruu0NZZ4-0" vertex="1">
                    <mxGeometry y="168" width="180" height="26" as="geometry"/>
                </mxCell>
                <mxCell id="q7pYmEnO_Y2Cruu0NZZ4-7" value="GameBoardHandler" style="swimlane;fontStyle=1;align=center;verticalAlign=top;childLayout=stackLayout;horizontal=1;startSize=26;horizontalStack=0;resizeParent=1;resizeLast=0;collapsible=1;marginBottom=0;rounded=0;shadow=0;strokeWidth=1;" parent="WIyWlLk6GJQsqaUBKTNV-1" vertex="1">
                    <mxGeometry x="80" y="2072.5" width="250" height="192" as="geometry">
                        <mxRectangle x="120" y="360" width="160" height="26" as="alternateBounds"/>
                    </mxGeometry>
                </mxCell>
                <mxCell id="q7pYmEnO_Y2Cruu0NZZ4-10" value="" style="line;html=1;strokeWidth=1;align=left;verticalAlign=middle;spacingTop=-1;spacingLeft=3;spacingRight=3;rotatable=0;labelPosition=right;points=[];portConstraint=eastwest;rounded=0;" parent="q7pYmEnO_Y2Cruu0NZZ4-7" vertex="1">
                    <mxGeometry y="26" width="250" height="8" as="geometry"/>
                </mxCell>
                <mxCell id="q7pYmEnO_Y2Cruu0NZZ4-11" value="move(number, number, PlayerNumber): void" style="text;align=left;verticalAlign=top;spacingLeft=4;spacingRight=4;overflow=hidden;rotatable=0;points=[[0,0.5],[1,0.5]];portConstraint=eastwest;fontStyle=0;rounded=0;" parent="q7pYmEnO_Y2Cruu0NZZ4-7" vertex="1">
                    <mxGeometry y="34" width="250" height="26" as="geometry"/>
                </mxCell>
                <mxCell id="q7pYmEnO_Y2Cruu0NZZ4-12" value="addPiece(number, number, GameBoard, &#10;PlayerNumber): GameBoard" style="text;strokeColor=none;fillColor=none;align=left;verticalAlign=top;spacingLeft=4;spacingRight=4;overflow=hidden;rotatable=0;points=[[0,0.5],[1,0.5]];portConstraint=eastwest;rounded=0;" parent="q7pYmEnO_Y2Cruu0NZZ4-7" vertex="1">
                    <mxGeometry y="60" width="250" height="38" as="geometry"/>
                </mxCell>
                <mxCell id="48" value="getPossibleNextPositions(PlayerNumber,&#10; GameBoard): [GameBoard]" style="text;strokeColor=none;fillColor=none;align=left;verticalAlign=top;spacingLeft=4;spacingRight=4;overflow=hidden;rotatable=0;points=[[0,0.5],[1,0.5]];portConstraint=eastwest;" parent="q7pYmEnO_Y2Cruu0NZZ4-7" vertex="1">
                    <mxGeometry y="98" width="250" height="32" as="geometry"/>
                </mxCell>
                <mxCell id="q7pYmEnO_Y2Cruu0NZZ4-13" value="resetGameBoard(): void" style="text;strokeColor=none;fillColor=none;align=left;verticalAlign=top;spacingLeft=4;spacingRight=4;overflow=hidden;rotatable=0;points=[[0,0.5],[1,0.5]];portConstraint=eastwest;rounded=0;" parent="q7pYmEnO_Y2Cruu0NZZ4-7" vertex="1">
                    <mxGeometry y="130" width="250" height="26" as="geometry"/>
                </mxCell>
                <mxCell id="q7pYmEnO_Y2Cruu0NZZ4-14" value="calculateWinner(): WinnerStatus" style="text;strokeColor=none;fillColor=none;align=left;verticalAlign=top;spacingLeft=4;spacingRight=4;overflow=hidden;rotatable=0;points=[[0,0.5],[1,0.5]];portConstraint=eastwest;fontFamily=Helvetica;fontSize=12;fontColor=default;rounded=0;" parent="q7pYmEnO_Y2Cruu0NZZ4-7" vertex="1">
                    <mxGeometry y="156" width="250" height="26" as="geometry"/>
                </mxCell>
                <mxCell id="q7pYmEnO_Y2Cruu0NZZ4-15" value="«enumeration»&#10; PlayerNumber" style="swimlane;fontStyle=1;align=center;verticalAlign=top;childLayout=stackLayout;horizontal=1;startSize=40;horizontalStack=0;resizeParent=1;resizeLast=0;collapsible=1;marginBottom=0;rounded=0;shadow=0;strokeWidth=1;" parent="WIyWlLk6GJQsqaUBKTNV-1" vertex="1">
                    <mxGeometry x="720" y="2050" width="160" height="105" as="geometry">
                        <mxRectangle x="120" y="360" width="160" height="26" as="alternateBounds"/>
                    </mxGeometry>
                </mxCell>
                <mxCell id="q7pYmEnO_Y2Cruu0NZZ4-16" value="1" style="text;align=left;verticalAlign=top;spacingLeft=4;spacingRight=4;overflow=hidden;rotatable=0;points=[[0,0.5],[1,0.5]];portConstraint=eastwest;rounded=0;" parent="q7pYmEnO_Y2Cruu0NZZ4-15" vertex="1">
                    <mxGeometry y="40" width="160" height="26" as="geometry"/>
                </mxCell>
                <mxCell id="q7pYmEnO_Y2Cruu0NZZ4-17" value="2" style="text;align=left;verticalAlign=top;spacingLeft=4;spacingRight=4;overflow=hidden;rotatable=0;points=[[0,0.5],[1,0.5]];portConstraint=eastwest;rounded=0;shadow=0;html=0;" parent="q7pYmEnO_Y2Cruu0NZZ4-15" vertex="1">
                    <mxGeometry y="66" width="160" height="26" as="geometry"/>
                </mxCell>
                <mxCell id="q7pYmEnO_Y2Cruu0NZZ4-18" value="" style="line;html=1;strokeWidth=1;align=left;verticalAlign=middle;spacingTop=-1;spacingLeft=3;spacingRight=3;rotatable=0;labelPosition=right;points=[];portConstraint=eastwest;rounded=0;" parent="q7pYmEnO_Y2Cruu0NZZ4-15" vertex="1">
                    <mxGeometry y="92" width="160" height="8" as="geometry"/>
                </mxCell>
                <mxCell id="q7pYmEnO_Y2Cruu0NZZ4-19" value="«enumeration»&#10;FieldType" style="swimlane;fontStyle=1;align=center;verticalAlign=top;childLayout=stackLayout;horizontal=1;startSize=40;horizontalStack=0;resizeParent=1;resizeParentMax=0;resizeLast=0;collapsible=1;marginBottom=0;rounded=0;" parent="WIyWlLk6GJQsqaUBKTNV-1" vertex="1">
                    <mxGeometry x="720" y="1895" width="160" height="100" as="geometry"/>
                </mxCell>
                <mxCell id="q7pYmEnO_Y2Cruu0NZZ4-20" value="0" style="text;strokeColor=none;fillColor=none;align=left;verticalAlign=top;spacingLeft=4;spacingRight=4;overflow=hidden;rotatable=0;points=[[0,0.5],[1,0.5]];portConstraint=eastwest;rounded=0;" parent="q7pYmEnO_Y2Cruu0NZZ4-19" vertex="1">
                    <mxGeometry y="40" width="160" height="26" as="geometry"/>
                </mxCell>
                <mxCell id="q7pYmEnO_Y2Cruu0NZZ4-21" value="PlayerNumber" style="text;strokeColor=none;fillColor=none;align=left;verticalAlign=top;spacingLeft=4;spacingRight=4;overflow=hidden;rotatable=0;points=[[0,0.5],[1,0.5]];portConstraint=eastwest;rounded=0;" parent="q7pYmEnO_Y2Cruu0NZZ4-19" vertex="1">
                    <mxGeometry y="66" width="160" height="26" as="geometry"/>
                </mxCell>
                <mxCell id="q7pYmEnO_Y2Cruu0NZZ4-22" value="" style="line;strokeWidth=1;fillColor=none;align=left;verticalAlign=middle;spacingTop=-1;spacingLeft=3;spacingRight=3;rotatable=0;labelPosition=right;points=[];portConstraint=eastwest;strokeColor=inherit;rounded=0;" parent="q7pYmEnO_Y2Cruu0NZZ4-19" vertex="1">
                    <mxGeometry y="92" width="160" height="8" as="geometry"/>
                </mxCell>
                <mxCell id="q7pYmEnO_Y2Cruu0NZZ4-23" value="Use" style="endArrow=open;endSize=12;dashed=1;html=1;edgeStyle=orthogonalEdgeStyle;rounded=0;" parent="WIyWlLk6GJQsqaUBKTNV-1" source="q7pYmEnO_Y2Cruu0NZZ4-7" target="q7pYmEnO_Y2Cruu0NZZ4-0" edge="1">
                    <mxGeometry width="160" relative="1" as="geometry">
                        <mxPoint x="390" y="2221" as="sourcePoint"/>
                        <mxPoint x="550" y="2221" as="targetPoint"/>
                        <Array as="points">
                            <mxPoint x="160" y="2016"/>
                            <mxPoint x="160" y="2016"/>
                        </Array>
                    </mxGeometry>
                </mxCell>
                <mxCell id="q7pYmEnO_Y2Cruu0NZZ4-24" value="9" style="endArrow=open;endSize=12;html=1;edgeStyle=elbowEdgeStyle;rounded=1;" parent="WIyWlLk6GJQsqaUBKTNV-1" source="q7pYmEnO_Y2Cruu0NZZ4-0" target="q7pYmEnO_Y2Cruu0NZZ4-19" edge="1">
                    <mxGeometry x="0.9535" y="-11" width="160" relative="1" as="geometry">
                        <mxPoint x="390" y="2221" as="sourcePoint"/>
                        <mxPoint x="550" y="2221" as="targetPoint"/>
                        <Array as="points">
                            <mxPoint x="550" y="1906"/>
                            <mxPoint x="580" y="1916"/>
                        </Array>
                        <mxPoint as="offset"/>
                    </mxGeometry>
                </mxCell>
                <mxCell id="19" value="state" style="edgeLabel;html=1;align=center;verticalAlign=middle;resizable=0;points=[];" parent="q7pYmEnO_Y2Cruu0NZZ4-24" vertex="1" connectable="0">
                    <mxGeometry x="-0.8744" y="-4" relative="1" as="geometry">
                        <mxPoint x="-7" y="6" as="offset"/>
                    </mxGeometry>
                </mxCell>
                <mxCell id="q7pYmEnO_Y2Cruu0NZZ4-25" value="«enumeration»&#10;WinnerStatus" style="swimlane;fontStyle=1;align=center;verticalAlign=top;childLayout=stackLayout;horizontal=1;startSize=38;horizontalStack=0;resizeParent=1;resizeParentMax=0;resizeLast=0;collapsible=1;marginBottom=0;fontFamily=Helvetica;fontSize=11;fontColor=default;rounded=0;" parent="WIyWlLk6GJQsqaUBKTNV-1" vertex="1">
                    <mxGeometry x="430" y="2140.5" width="160" height="124" as="geometry"/>
                </mxCell>
                <mxCell id="q7pYmEnO_Y2Cruu0NZZ4-26" value="PlayerNumber" style="text;strokeColor=none;fillColor=none;align=left;verticalAlign=top;spacingLeft=4;spacingRight=4;overflow=hidden;rotatable=0;points=[[0,0.5],[1,0.5]];portConstraint=eastwest;fontFamily=Helvetica;fontSize=11;fontColor=default;rounded=0;" parent="q7pYmEnO_Y2Cruu0NZZ4-25" vertex="1">
                    <mxGeometry y="38" width="160" height="26" as="geometry"/>
                </mxCell>
                <mxCell id="q7pYmEnO_Y2Cruu0NZZ4-27" value="-1" style="text;strokeColor=none;fillColor=none;align=left;verticalAlign=top;spacingLeft=4;spacingRight=4;overflow=hidden;rotatable=0;points=[[0,0.5],[1,0.5]];portConstraint=eastwest;fontFamily=Helvetica;fontSize=11;fontColor=default;rounded=0;" parent="q7pYmEnO_Y2Cruu0NZZ4-25" vertex="1">
                    <mxGeometry y="64" width="160" height="26" as="geometry"/>
                </mxCell>
                <mxCell id="q7pYmEnO_Y2Cruu0NZZ4-28" value="null" style="text;strokeColor=none;fillColor=none;align=left;verticalAlign=top;spacingLeft=4;spacingRight=4;overflow=hidden;rotatable=0;points=[[0,0.5],[1,0.5]];portConstraint=eastwest;fontFamily=Helvetica;fontSize=11;fontColor=default;rounded=0;" parent="q7pYmEnO_Y2Cruu0NZZ4-25" vertex="1">
                    <mxGeometry y="90" width="160" height="26" as="geometry"/>
                </mxCell>
                <mxCell id="q7pYmEnO_Y2Cruu0NZZ4-29" value="" style="line;strokeWidth=1;fillColor=none;align=left;verticalAlign=middle;spacingTop=-1;spacingLeft=3;spacingRight=3;rotatable=0;labelPosition=right;points=[];portConstraint=eastwest;strokeColor=inherit;fontFamily=Helvetica;fontSize=11;fontColor=default;rounded=0;" parent="q7pYmEnO_Y2Cruu0NZZ4-25" vertex="1">
                    <mxGeometry y="116" width="160" height="8" as="geometry"/>
                </mxCell>
                <mxCell id="q7pYmEnO_Y2Cruu0NZZ4-30" value="Use" style="endArrow=open;endSize=12;dashed=1;html=1;rounded=1;labelBackgroundColor=default;strokeColor=default;fontFamily=Helvetica;fontSize=11;fontColor=default;shape=connector;edgeStyle=elbowEdgeStyle;" parent="WIyWlLk6GJQsqaUBKTNV-1" source="q7pYmEnO_Y2Cruu0NZZ4-7" target="q7pYmEnO_Y2Cruu0NZZ4-25" edge="1">
                    <mxGeometry width="160" relative="1" as="geometry">
                        <mxPoint x="390" y="2221" as="sourcePoint"/>
                        <mxPoint x="550" y="2221" as="targetPoint"/>
                        <Array as="points">
                            <mxPoint x="390" y="2174"/>
                        </Array>
                    </mxGeometry>
                </mxCell>
                <mxCell id="q7pYmEnO_Y2Cruu0NZZ4-32" value="winner" style="endArrow=open;endSize=12;html=1;rounded=0;labelBackgroundColor=default;strokeColor=default;fontFamily=Helvetica;fontSize=11;fontColor=default;shape=connector;" parent="WIyWlLk6GJQsqaUBKTNV-1" source="q7pYmEnO_Y2Cruu0NZZ4-110" target="q7pYmEnO_Y2Cruu0NZZ4-25" edge="1">
                    <mxGeometry width="160" relative="1" as="geometry">
                        <mxPoint x="520.0000000000002" y="2331" as="sourcePoint"/>
                        <mxPoint x="690" y="2431" as="targetPoint"/>
                    </mxGeometry>
                </mxCell>
                <mxCell id="q7pYmEnO_Y2Cruu0NZZ4-34" value="Isomorphism" style="swimlane;fontStyle=1;align=center;verticalAlign=top;childLayout=stackLayout;horizontal=1;startSize=26;horizontalStack=0;resizeParent=1;resizeParentMax=0;resizeLast=0;collapsible=1;marginBottom=0;rounded=0;" parent="WIyWlLk6GJQsqaUBKTNV-1" vertex="1">
                    <mxGeometry x="455" y="1630" width="190" height="86" as="geometry"/>
                </mxCell>
                <mxCell id="q7pYmEnO_Y2Cruu0NZZ4-35" value="transformation: [[[number]]]" style="text;strokeColor=none;fillColor=none;align=left;verticalAlign=top;spacingLeft=4;spacingRight=4;overflow=hidden;rotatable=0;points=[[0,0.5],[1,0.5]];portConstraint=eastwest;rounded=0;" parent="q7pYmEnO_Y2Cruu0NZZ4-34" vertex="1">
                    <mxGeometry y="26" width="190" height="26" as="geometry"/>
                </mxCell>
                <mxCell id="q7pYmEnO_Y2Cruu0NZZ4-36" value="" style="line;strokeWidth=1;fillColor=none;align=left;verticalAlign=middle;spacingTop=-1;spacingLeft=3;spacingRight=3;rotatable=0;labelPosition=right;points=[];portConstraint=eastwest;strokeColor=inherit;rounded=0;" parent="q7pYmEnO_Y2Cruu0NZZ4-34" vertex="1">
                    <mxGeometry y="52" width="190" height="8" as="geometry"/>
                </mxCell>
                <mxCell id="q7pYmEnO_Y2Cruu0NZZ4-37" value="apply(GameBoard): GameBoard" style="text;strokeColor=none;fillColor=none;align=left;verticalAlign=top;spacingLeft=4;spacingRight=4;overflow=hidden;rotatable=0;points=[[0,0.5],[1,0.5]];portConstraint=eastwest;rounded=0;" parent="q7pYmEnO_Y2Cruu0NZZ4-34" vertex="1">
                    <mxGeometry y="60" width="190" height="26" as="geometry"/>
                </mxCell>
                <mxCell id="q7pYmEnO_Y2Cruu0NZZ4-39" value="IsomorphismGroup" style="swimlane;fontStyle=1;align=center;verticalAlign=top;childLayout=stackLayout;horizontal=1;startSize=26;horizontalStack=0;resizeParent=1;resizeParentMax=0;resizeLast=0;collapsible=1;marginBottom=0;rounded=0;" parent="WIyWlLk6GJQsqaUBKTNV-1" vertex="1">
                    <mxGeometry x="750" y="1630" width="300" height="112" as="geometry"/>
                </mxCell>
                <mxCell id="q7pYmEnO_Y2Cruu0NZZ4-48" value="" style="line;strokeWidth=1;fillColor=none;align=left;verticalAlign=middle;spacingTop=-1;spacingLeft=3;spacingRight=3;rotatable=0;labelPosition=right;points=[];portConstraint=eastwest;strokeColor=inherit;rounded=0;" parent="q7pYmEnO_Y2Cruu0NZZ4-39" vertex="1">
                    <mxGeometry y="26" width="300" height="8" as="geometry"/>
                </mxCell>
                <mxCell id="q7pYmEnO_Y2Cruu0NZZ4-50" value="getGameBoardEquiv(GameBoard): [number]" style="text;strokeColor=none;fillColor=none;align=left;verticalAlign=top;spacingLeft=4;spacingRight=4;overflow=hidden;rotatable=0;points=[[0,0.5],[1,0.5]];portConstraint=eastwest;rounded=0;" parent="q7pYmEnO_Y2Cruu0NZZ4-39" vertex="1">
                    <mxGeometry y="34" width="300" height="26" as="geometry"/>
                </mxCell>
                <mxCell id="50" value="getNormalFormOfGameBoards([number]): number" style="text;strokeColor=none;fillColor=none;align=left;verticalAlign=top;spacingLeft=4;spacingRight=4;overflow=hidden;rotatable=0;points=[[0,0.5],[1,0.5]];portConstraint=eastwest;" parent="q7pYmEnO_Y2Cruu0NZZ4-39" vertex="1">
                    <mxGeometry y="60" width="300" height="26" as="geometry"/>
                </mxCell>
                <mxCell id="51" value="getNormalFormOfGameBoard(GameBoard): number" style="text;strokeColor=none;fillColor=none;align=left;verticalAlign=top;spacingLeft=4;spacingRight=4;overflow=hidden;rotatable=0;points=[[0,0.5],[1,0.5]];portConstraint=eastwest;" parent="q7pYmEnO_Y2Cruu0NZZ4-39" vertex="1">
                    <mxGeometry y="86" width="300" height="26" as="geometry"/>
                </mxCell>
                <mxCell id="q7pYmEnO_Y2Cruu0NZZ4-71" value="AIPlayer" style="swimlane;fontStyle=1;align=center;verticalAlign=top;childLayout=stackLayout;horizontal=1;startSize=26;horizontalStack=0;resizeParent=1;resizeParentMax=0;resizeLast=0;collapsible=1;marginBottom=0;" parent="WIyWlLk6GJQsqaUBKTNV-1" vertex="1">
                    <mxGeometry x="105" y="1250" width="270" height="136" as="geometry"/>
                </mxCell>
                <mxCell id="q7pYmEnO_Y2Cruu0NZZ4-73" value="weights: Map&lt;number, Map&lt;number,number&gt;&gt;" style="text;strokeColor=none;fillColor=none;align=left;verticalAlign=top;spacingLeft=4;spacingRight=4;overflow=hidden;rotatable=0;points=[[0,0.5],[1,0.5]];portConstraint=eastwest;" parent="q7pYmEnO_Y2Cruu0NZZ4-71" vertex="1">
                    <mxGeometry y="26" width="270" height="24" as="geometry"/>
                </mxCell>
                <mxCell id="q7pYmEnO_Y2Cruu0NZZ4-74" value="" style="line;strokeWidth=1;fillColor=none;align=left;verticalAlign=middle;spacingTop=-1;spacingLeft=3;spacingRight=3;rotatable=0;labelPosition=right;points=[];portConstraint=eastwest;strokeColor=inherit;" parent="q7pYmEnO_Y2Cruu0NZZ4-71" vertex="1">
                    <mxGeometry y="50" width="270" height="8" as="geometry"/>
                </mxCell>
                <mxCell id="63" value="resetWeights(): void" style="text;strokeColor=none;fillColor=none;align=left;verticalAlign=top;spacingLeft=4;spacingRight=4;overflow=hidden;rotatable=0;points=[[0,0.5],[1,0.5]];portConstraint=eastwest;" parent="q7pYmEnO_Y2Cruu0NZZ4-71" vertex="1">
                    <mxGeometry y="58" width="270" height="26" as="geometry"/>
                </mxCell>
                <mxCell id="53" value="initializeWeights(number): void" style="text;strokeColor=none;fillColor=none;align=left;verticalAlign=top;spacingLeft=4;spacingRight=4;overflow=hidden;rotatable=0;points=[[0,0.5],[1,0.5]];portConstraint=eastwest;" parent="q7pYmEnO_Y2Cruu0NZZ4-71" vertex="1">
                    <mxGeometry y="84" width="270" height="26" as="geometry"/>
                </mxCell>
                <mxCell id="68" value="applyPolicy()" style="text;strokeColor=none;fillColor=none;align=left;verticalAlign=top;spacingLeft=4;spacingRight=4;overflow=hidden;rotatable=0;points=[[0,0.5],[1,0.5]];portConstraint=eastwest;" vertex="1" parent="q7pYmEnO_Y2Cruu0NZZ4-71">
                    <mxGeometry y="110" width="270" height="26" as="geometry"/>
                </mxCell>
                <mxCell id="q7pYmEnO_Y2Cruu0NZZ4-77" value="«Interface»&#10;Player" style="swimlane;fontStyle=3;align=center;verticalAlign=top;childLayout=stackLayout;horizontal=1;startSize=40;horizontalStack=0;resizeParent=1;resizeParentMax=0;resizeLast=0;collapsible=1;marginBottom=0;" parent="WIyWlLk6GJQsqaUBKTNV-1" vertex="1">
                    <mxGeometry x="430" y="1040" width="280" height="100" as="geometry"/>
                </mxCell>
                <mxCell id="q7pYmEnO_Y2Cruu0NZZ4-78" value="" style="line;strokeWidth=1;fillColor=none;align=left;verticalAlign=middle;spacingTop=-1;spacingLeft=3;spacingRight=3;rotatable=0;labelPosition=right;points=[];portConstraint=eastwest;strokeColor=inherit;" parent="q7pYmEnO_Y2Cruu0NZZ4-77" vertex="1">
                    <mxGeometry y="40" width="280" height="8" as="geometry"/>
                </mxCell>
                <mxCell id="q7pYmEnO_Y2Cruu0NZZ4-79" value="isAI(): boolean" style="text;strokeColor=none;fillColor=none;align=left;verticalAlign=top;spacingLeft=4;spacingRight=4;overflow=hidden;rotatable=0;points=[[0,0.5],[1,0.5]];portConstraint=eastwest;" parent="q7pYmEnO_Y2Cruu0NZZ4-77" vertex="1">
                    <mxGeometry y="48" width="280" height="26" as="geometry"/>
                </mxCell>
                <mxCell id="q7pYmEnO_Y2Cruu0NZZ4-75" value="makeMove(): void" style="text;strokeColor=none;fillColor=none;align=left;verticalAlign=top;spacingLeft=4;spacingRight=4;overflow=hidden;rotatable=0;points=[[0,0.5],[1,0.5]];portConstraint=eastwest;" parent="q7pYmEnO_Y2Cruu0NZZ4-77" vertex="1">
                    <mxGeometry y="74" width="280" height="26" as="geometry"/>
                </mxCell>
                <mxCell id="q7pYmEnO_Y2Cruu0NZZ4-80" value="UserPlayer" style="swimlane;fontStyle=1;align=center;verticalAlign=top;childLayout=stackLayout;horizontal=1;startSize=26;horizontalStack=0;resizeParent=1;resizeParentMax=0;resizeLast=0;collapsible=1;marginBottom=0;labelBackgroundColor=none;fillStyle=auto;" parent="WIyWlLk6GJQsqaUBKTNV-1" vertex="1">
                    <mxGeometry x="571" y="1284" width="160" height="34" as="geometry"/>
                </mxCell>
                <mxCell id="q7pYmEnO_Y2Cruu0NZZ4-81" value="" style="line;strokeWidth=1;fillColor=none;align=left;verticalAlign=middle;spacingTop=-1;spacingLeft=3;spacingRight=3;rotatable=0;labelPosition=right;points=[];portConstraint=eastwest;strokeColor=inherit;labelBackgroundColor=#FF3333;fillStyle=auto;" parent="q7pYmEnO_Y2Cruu0NZZ4-80" vertex="1">
                    <mxGeometry y="26" width="160" height="8" as="geometry"/>
                </mxCell>
                <mxCell id="q7pYmEnO_Y2Cruu0NZZ4-83" value="" style="endArrow=block;endSize=16;endFill=0;html=1;edgeStyle=elbowEdgeStyle;" parent="WIyWlLk6GJQsqaUBKTNV-1" source="q7pYmEnO_Y2Cruu0NZZ4-80" target="q7pYmEnO_Y2Cruu0NZZ4-77" edge="1">
                    <mxGeometry x="-0.6277" y="8" width="160" relative="1" as="geometry">
                        <mxPoint x="465" y="1470" as="sourcePoint"/>
                        <mxPoint x="625" y="1470" as="targetPoint"/>
                        <Array as="points">
                            <mxPoint x="550" y="1250"/>
                            <mxPoint x="575" y="1240"/>
                            <mxPoint x="550" y="1312"/>
                        </Array>
                        <mxPoint as="offset"/>
                    </mxGeometry>
                </mxCell>
                <mxCell id="q7pYmEnO_Y2Cruu0NZZ4-84" value="EvaluationPolicy" style="swimlane;fontStyle=3;align=center;verticalAlign=top;childLayout=stackLayout;horizontal=1;startSize=26;horizontalStack=0;resizeParent=1;resizeParentMax=0;resizeLast=0;collapsible=1;marginBottom=0;" parent="WIyWlLk6GJQsqaUBKTNV-1" vertex="1">
                    <mxGeometry x="115" y="1060" width="235" height="60" as="geometry"/>
                </mxCell>
                <mxCell id="q7pYmEnO_Y2Cruu0NZZ4-85" value="" style="line;strokeWidth=1;fillColor=none;align=left;verticalAlign=middle;spacingTop=-1;spacingLeft=3;spacingRight=3;rotatable=0;labelPosition=right;points=[];portConstraint=eastwest;strokeColor=inherit;" parent="q7pYmEnO_Y2Cruu0NZZ4-84" vertex="1">
                    <mxGeometry y="26" width="235" height="8" as="geometry"/>
                </mxCell>
                <mxCell id="q7pYmEnO_Y2Cruu0NZZ4-86" value="applyPolicy(AIPlayer, [GameBoard]): void" style="text;strokeColor=none;fillColor=none;align=left;verticalAlign=top;spacingLeft=4;spacingRight=4;overflow=hidden;rotatable=0;points=[[0,0.5],[1,0.5]];portConstraint=eastwest;fontStyle=2" parent="q7pYmEnO_Y2Cruu0NZZ4-84" vertex="1">
                    <mxGeometry y="34" width="235" height="26" as="geometry"/>
                </mxCell>
                <mxCell id="q7pYmEnO_Y2Cruu0NZZ4-87" value="EliminationPolicy" style="swimlane;fontStyle=1;align=center;verticalAlign=top;childLayout=stackLayout;horizontal=1;startSize=26;horizontalStack=0;resizeParent=1;resizeParentMax=0;resizeLast=0;collapsible=1;marginBottom=0;" parent="WIyWlLk6GJQsqaUBKTNV-1" vertex="1">
                    <mxGeometry x="255" y="860" width="160" height="34" as="geometry"/>
                </mxCell>
                <mxCell id="q7pYmEnO_Y2Cruu0NZZ4-88" value="" style="line;strokeWidth=1;fillColor=none;align=left;verticalAlign=middle;spacingTop=-1;spacingLeft=3;spacingRight=3;rotatable=0;labelPosition=right;points=[];portConstraint=eastwest;strokeColor=inherit;" parent="q7pYmEnO_Y2Cruu0NZZ4-87" vertex="1">
                    <mxGeometry y="26" width="160" height="8" as="geometry"/>
                </mxCell>
                <mxCell id="q7pYmEnO_Y2Cruu0NZZ4-89" value="BackPropagationPolicy" style="swimlane;fontStyle=1;align=center;verticalAlign=top;childLayout=stackLayout;horizontal=1;startSize=26;horizontalStack=0;resizeParent=1;resizeParentMax=0;resizeLast=0;collapsible=1;marginBottom=0;" parent="WIyWlLk6GJQsqaUBKTNV-1" vertex="1">
                    <mxGeometry x="85" y="800" width="160" height="112" as="geometry"/>
                </mxCell>
                <mxCell id="q7pYmEnO_Y2Cruu0NZZ4-90" value="winDiff: number" style="text;strokeColor=none;fillColor=none;align=left;verticalAlign=top;spacingLeft=4;spacingRight=4;overflow=hidden;rotatable=0;points=[[0,0.5],[1,0.5]];portConstraint=eastwest;" parent="q7pYmEnO_Y2Cruu0NZZ4-89" vertex="1">
                    <mxGeometry y="26" width="160" height="26" as="geometry"/>
                </mxCell>
                <mxCell id="q7pYmEnO_Y2Cruu0NZZ4-91" value="drawDiff: number" style="text;strokeColor=none;fillColor=none;align=left;verticalAlign=top;spacingLeft=4;spacingRight=4;overflow=hidden;rotatable=0;points=[[0,0.5],[1,0.5]];portConstraint=eastwest;" parent="q7pYmEnO_Y2Cruu0NZZ4-89" vertex="1">
                    <mxGeometry y="52" width="160" height="26" as="geometry"/>
                </mxCell>
                <mxCell id="q7pYmEnO_Y2Cruu0NZZ4-92" value="looseDiff: number" style="text;strokeColor=none;fillColor=none;align=left;verticalAlign=top;spacingLeft=4;spacingRight=4;overflow=hidden;rotatable=0;points=[[0,0.5],[1,0.5]];portConstraint=eastwest;" parent="q7pYmEnO_Y2Cruu0NZZ4-89" vertex="1">
                    <mxGeometry y="78" width="160" height="26" as="geometry"/>
                </mxCell>
                <mxCell id="q7pYmEnO_Y2Cruu0NZZ4-93" value="" style="line;strokeWidth=1;fillColor=none;align=left;verticalAlign=middle;spacingTop=-1;spacingLeft=3;spacingRight=3;rotatable=0;labelPosition=right;points=[];portConstraint=eastwest;strokeColor=inherit;" parent="q7pYmEnO_Y2Cruu0NZZ4-89" vertex="1">
                    <mxGeometry y="104" width="160" height="8" as="geometry"/>
                </mxCell>
                <mxCell id="q7pYmEnO_Y2Cruu0NZZ4-94" value="Extends" style="endArrow=block;endSize=16;endFill=0;html=1;edgeStyle=orthogonalEdgeStyle;elbow=vertical;" parent="WIyWlLk6GJQsqaUBKTNV-1" source="q7pYmEnO_Y2Cruu0NZZ4-87" target="q7pYmEnO_Y2Cruu0NZZ4-84" edge="1">
                    <mxGeometry x="0.7342" y="25" width="160" relative="1" as="geometry">
                        <mxPoint x="415" y="1200" as="sourcePoint"/>
                        <mxPoint x="375" y="1330" as="targetPoint"/>
                        <Array as="points">
                            <mxPoint x="335" y="990"/>
                            <mxPoint x="200" y="990"/>
                        </Array>
                        <mxPoint as="offset"/>
                    </mxGeometry>
                </mxCell>
                <mxCell id="q7pYmEnO_Y2Cruu0NZZ4-95" value="" style="endArrow=block;endSize=16;endFill=0;html=1;edgeStyle=orthogonalEdgeStyle;elbow=vertical;" parent="WIyWlLk6GJQsqaUBKTNV-1" source="q7pYmEnO_Y2Cruu0NZZ4-89" target="q7pYmEnO_Y2Cruu0NZZ4-84" edge="1">
                    <mxGeometry x="-0.2568" y="-20" width="160" relative="1" as="geometry">
                        <mxPoint x="445" y="1192.1525423728813" as="sourcePoint"/>
                        <mxPoint x="315" y="1200.5254237288136" as="targetPoint"/>
                        <Array as="points">
                            <mxPoint x="165" y="990"/>
                            <mxPoint x="200" y="990"/>
                        </Array>
                        <mxPoint as="offset"/>
                    </mxGeometry>
                </mxCell>
                <mxCell id="q7pYmEnO_Y2Cruu0NZZ4-96" value="Use" style="endArrow=open;endSize=12;dashed=1;html=1;edgeStyle=elbowEdgeStyle;" parent="WIyWlLk6GJQsqaUBKTNV-1" source="q7pYmEnO_Y2Cruu0NZZ4-84" target="q7pYmEnO_Y2Cruu0NZZ4-71" edge="1">
                    <mxGeometry width="160" relative="1" as="geometry">
                        <mxPoint x="465" y="1320" as="sourcePoint"/>
                        <mxPoint x="625" y="1320" as="targetPoint"/>
                        <Array as="points">
                            <mxPoint x="170" y="1150"/>
                        </Array>
                    </mxGeometry>
                </mxCell>
                <mxCell id="q7pYmEnO_Y2Cruu0NZZ4-97" value="Use" style="endArrow=open;endSize=12;dashed=1;html=1;edgeStyle=orthogonalEdgeStyle;elbow=vertical;" parent="WIyWlLk6GJQsqaUBKTNV-1" source="q7pYmEnO_Y2Cruu0NZZ4-84" target="q7pYmEnO_Y2Cruu0NZZ4-0" edge="1">
                    <mxGeometry width="160" relative="1" as="geometry">
                        <mxPoint x="465" y="1890" as="sourcePoint"/>
                        <mxPoint x="625" y="1890" as="targetPoint"/>
                        <Array as="points">
                            <mxPoint x="20" y="1070"/>
                            <mxPoint x="20" y="1940"/>
                        </Array>
                    </mxGeometry>
                </mxCell>
                <mxCell id="q7pYmEnO_Y2Cruu0NZZ4-98" value="GameSettings" style="swimlane;fontStyle=1;align=center;verticalAlign=top;childLayout=stackLayout;horizontal=1;startSize=26;horizontalStack=0;resizeParent=1;resizeParentMax=0;resizeLast=0;collapsible=1;marginBottom=0;" parent="WIyWlLk6GJQsqaUBKTNV-1" vertex="1">
                    <mxGeometry x="769" y="1260" width="231" height="202" as="geometry"/>
                </mxCell>
                <mxCell id="q7pYmEnO_Y2Cruu0NZZ4-101" value="speed: number" style="text;strokeColor=none;fillColor=none;align=left;verticalAlign=top;spacingLeft=4;spacingRight=4;overflow=hidden;rotatable=0;points=[[0,0.5],[1,0.5]];portConstraint=eastwest;" parent="q7pYmEnO_Y2Cruu0NZZ4-98" vertex="1">
                    <mxGeometry y="26" width="231" height="26" as="geometry"/>
                </mxCell>
                <mxCell id="q7pYmEnO_Y2Cruu0NZZ4-102" value="lastPolicies:&#10;Map&lt;AIPlayer,EvaluationPolicy&gt;" style="text;strokeColor=none;fillColor=none;align=left;verticalAlign=top;spacingLeft=4;spacingRight=4;overflow=hidden;rotatable=0;points=[[0,0.5],[1,0.5]];portConstraint=eastwest;" parent="q7pYmEnO_Y2Cruu0NZZ4-98" vertex="1">
                    <mxGeometry y="52" width="231" height="38" as="geometry"/>
                </mxCell>
                <mxCell id="q7pYmEnO_Y2Cruu0NZZ4-103" value="skipAITurn: boolean" style="text;strokeColor=none;fillColor=none;align=left;verticalAlign=top;spacingLeft=4;spacingRight=4;overflow=hidden;rotatable=0;points=[[0,0.5],[1,0.5]];portConstraint=eastwest;" parent="q7pYmEnO_Y2Cruu0NZZ4-98" vertex="1">
                    <mxGeometry y="90" width="231" height="26" as="geometry"/>
                </mxCell>
                <mxCell id="q7pYmEnO_Y2Cruu0NZZ4-104" value="skipNewGame: boolean" style="text;strokeColor=none;fillColor=none;align=left;verticalAlign=top;spacingLeft=4;spacingRight=4;overflow=hidden;rotatable=0;points=[[0,0.5],[1,0.5]];portConstraint=eastwest;" parent="q7pYmEnO_Y2Cruu0NZZ4-98" vertex="1">
                    <mxGeometry y="116" width="231" height="26" as="geometry"/>
                </mxCell>
                <mxCell id="q7pYmEnO_Y2Cruu0NZZ4-105" value="skipEvaluation: boolean" style="text;strokeColor=none;fillColor=none;align=left;verticalAlign=top;spacingLeft=4;spacingRight=4;overflow=hidden;rotatable=0;points=[[0,0.5],[1,0.5]];portConstraint=eastwest;" parent="q7pYmEnO_Y2Cruu0NZZ4-98" vertex="1">
                    <mxGeometry y="142" width="231" height="26" as="geometry"/>
                </mxCell>
                <mxCell id="q7pYmEnO_Y2Cruu0NZZ4-106" value="" style="line;strokeWidth=1;fillColor=none;align=left;verticalAlign=middle;spacingTop=-1;spacingLeft=3;spacingRight=3;rotatable=0;labelPosition=right;points=[];portConstraint=eastwest;strokeColor=inherit;" parent="q7pYmEnO_Y2Cruu0NZZ4-98" vertex="1">
                    <mxGeometry y="168" width="231" height="8" as="geometry"/>
                </mxCell>
                <mxCell id="q7pYmEnO_Y2Cruu0NZZ4-108" value="setPolicy(AIPlayer,EvaluationPolicy): void" style="text;strokeColor=none;fillColor=none;align=left;verticalAlign=top;spacingLeft=4;spacingRight=4;overflow=hidden;rotatable=0;points=[[0,0.5],[1,0.5]];portConstraint=eastwest;" parent="q7pYmEnO_Y2Cruu0NZZ4-98" vertex="1">
                    <mxGeometry y="176" width="231" height="26" as="geometry"/>
                </mxCell>
                <mxCell id="q7pYmEnO_Y2Cruu0NZZ4-110" value="GameHandler" style="swimlane;fontStyle=1;align=center;verticalAlign=top;childLayout=stackLayout;horizontal=1;startSize=26;horizontalStack=0;resizeParent=1;resizeParentMax=0;resizeLast=0;collapsible=1;marginBottom=0;labelBackgroundColor=default;fillStyle=auto;" parent="WIyWlLk6GJQsqaUBKTNV-1" vertex="1">
                    <mxGeometry x="415" y="2366" width="200" height="164" as="geometry"/>
                </mxCell>
                <mxCell id="q7pYmEnO_Y2Cruu0NZZ4-116" value="" style="line;strokeWidth=1;fillColor=none;align=left;verticalAlign=middle;spacingTop=-1;spacingLeft=3;spacingRight=3;rotatable=0;labelPosition=right;points=[];portConstraint=eastwest;strokeColor=inherit;" parent="q7pYmEnO_Y2Cruu0NZZ4-110" vertex="1">
                    <mxGeometry y="26" width="200" height="8" as="geometry"/>
                </mxCell>
                <mxCell id="q7pYmEnO_Y2Cruu0NZZ4-117" value="setup(): void" style="text;strokeColor=none;fillColor=none;align=left;verticalAlign=top;spacingLeft=4;spacingRight=4;overflow=hidden;rotatable=0;points=[[0,0.5],[1,0.5]];portConstraint=eastwest;" parent="q7pYmEnO_Y2Cruu0NZZ4-110" vertex="1">
                    <mxGeometry y="34" width="200" height="26" as="geometry"/>
                </mxCell>
                <mxCell id="q7pYmEnO_Y2Cruu0NZZ4-118" value="newGame(GameSettings): void" style="text;strokeColor=none;fillColor=none;align=left;verticalAlign=top;spacingLeft=4;spacingRight=4;overflow=hidden;rotatable=0;points=[[0,0.5],[1,0.5]];portConstraint=eastwest;" parent="q7pYmEnO_Y2Cruu0NZZ4-110" vertex="1">
                    <mxGeometry y="60" width="200" height="26" as="geometry"/>
                </mxCell>
                <mxCell id="q7pYmEnO_Y2Cruu0NZZ4-119" value="newGame(): void" style="text;strokeColor=none;fillColor=none;align=left;verticalAlign=top;spacingLeft=4;spacingRight=4;overflow=hidden;rotatable=0;points=[[0,0.5],[1,0.5]];portConstraint=eastwest;" parent="q7pYmEnO_Y2Cruu0NZZ4-110" vertex="1">
                    <mxGeometry y="86" width="200" height="26" as="geometry"/>
                </mxCell>
                <mxCell id="q7pYmEnO_Y2Cruu0NZZ4-107" value="performTurn(): void" style="text;strokeColor=none;fillColor=none;align=left;verticalAlign=top;spacingLeft=4;spacingRight=4;overflow=hidden;rotatable=0;points=[[0,0.5],[1,0.5]];portConstraint=eastwest;" parent="q7pYmEnO_Y2Cruu0NZZ4-110" vertex="1">
                    <mxGeometry y="112" width="200" height="26" as="geometry"/>
                </mxCell>
                <mxCell id="64" value="createAI(): void" style="text;strokeColor=none;fillColor=none;align=left;verticalAlign=top;spacingLeft=4;spacingRight=4;overflow=hidden;rotatable=0;points=[[0,0.5],[1,0.5]];portConstraint=eastwest;" parent="q7pYmEnO_Y2Cruu0NZZ4-110" vertex="1">
                    <mxGeometry y="138" width="200" height="26" as="geometry"/>
                </mxCell>
                <mxCell id="q7pYmEnO_Y2Cruu0NZZ4-120" value="aIs" style="endArrow=open;endSize=12;html=1;rounded=1;fontSize=12;elbow=vertical;edgeStyle=orthogonalEdgeStyle;" parent="WIyWlLk6GJQsqaUBKTNV-1" source="q7pYmEnO_Y2Cruu0NZZ4-110" target="q7pYmEnO_Y2Cruu0NZZ4-71" edge="1">
                    <mxGeometry x="-0.8221" y="10" width="160" relative="1" as="geometry">
                        <mxPoint x="435" y="2500" as="sourcePoint"/>
                        <mxPoint x="435" y="1760" as="targetPoint"/>
                        <Array as="points">
                            <mxPoint x="60" y="2490"/>
                            <mxPoint x="60" y="1270"/>
                        </Array>
                        <mxPoint as="offset"/>
                    </mxGeometry>
                </mxCell>
                <mxCell id="q7pYmEnO_Y2Cruu0NZZ4-121" value="Use" style="endArrow=open;endSize=12;dashed=1;html=1;rounded=1;fontSize=12;edgeStyle=orthogonalEdgeStyle;" parent="WIyWlLk6GJQsqaUBKTNV-1" source="q7pYmEnO_Y2Cruu0NZZ4-98" target="q7pYmEnO_Y2Cruu0NZZ4-84" edge="1">
                    <mxGeometry width="160" relative="1" as="geometry">
                        <mxPoint x="515" y="1040" as="sourcePoint"/>
                        <mxPoint x="675" y="1040" as="targetPoint"/>
                        <Array as="points">
                            <mxPoint x="927" y="1020"/>
                            <mxPoint x="285" y="1020"/>
                        </Array>
                    </mxGeometry>
                </mxCell>
                <mxCell id="q7pYmEnO_Y2Cruu0NZZ4-122" value="Use" style="endArrow=open;endSize=12;dashed=1;html=1;rounded=1;fontSize=12;edgeStyle=orthogonalEdgeStyle;" parent="WIyWlLk6GJQsqaUBKTNV-1" source="q7pYmEnO_Y2Cruu0NZZ4-98" target="q7pYmEnO_Y2Cruu0NZZ4-71" edge="1">
                    <mxGeometry x="0.3525" width="160" relative="1" as="geometry">
                        <mxPoint x="515" y="1360" as="sourcePoint"/>
                        <mxPoint x="675" y="1360" as="targetPoint"/>
                        <Array as="points">
                            <mxPoint x="275" y="1440"/>
                        </Array>
                        <mxPoint as="offset"/>
                    </mxGeometry>
                </mxCell>
                <mxCell id="q7pYmEnO_Y2Cruu0NZZ4-123" value="currentSettings" style="endArrow=open;endSize=12;html=1;rounded=1;fontSize=12;edgeStyle=orthogonalEdgeStyle;" parent="WIyWlLk6GJQsqaUBKTNV-1" source="q7pYmEnO_Y2Cruu0NZZ4-110" target="q7pYmEnO_Y2Cruu0NZZ4-98" edge="1">
                    <mxGeometry x="-0.95" width="160" relative="1" as="geometry">
                        <mxPoint x="725" y="2600" as="sourcePoint"/>
                        <mxPoint x="835" y="1580" as="targetPoint"/>
                        <Array as="points">
                            <mxPoint x="1090" y="2420"/>
                            <mxPoint x="1090" y="1340"/>
                        </Array>
                        <mxPoint as="offset"/>
                    </mxGeometry>
                </mxCell>
                <mxCell id="q7pYmEnO_Y2Cruu0NZZ4-127" value="" style="endArrow=open;endFill=1;endSize=12;html=1;edgeStyle=elbowEdgeStyle;elbow=vertical;" parent="WIyWlLk6GJQsqaUBKTNV-1" source="q7pYmEnO_Y2Cruu0NZZ4-25" target="q7pYmEnO_Y2Cruu0NZZ4-15" edge="1">
                    <mxGeometry width="160" relative="1" as="geometry">
                        <mxPoint x="475" y="2186" as="sourcePoint"/>
                        <mxPoint x="635" y="2186" as="targetPoint"/>
                    </mxGeometry>
                </mxCell>
                <mxCell id="q7pYmEnO_Y2Cruu0NZZ4-128" value="" style="endArrow=open;endFill=1;endSize=12;html=1;" parent="WIyWlLk6GJQsqaUBKTNV-1" source="q7pYmEnO_Y2Cruu0NZZ4-19" target="q7pYmEnO_Y2Cruu0NZZ4-15" edge="1">
                    <mxGeometry width="160" relative="1" as="geometry">
                        <mxPoint x="595" y="2076" as="sourcePoint"/>
                        <mxPoint x="755" y="2076" as="targetPoint"/>
                    </mxGeometry>
                </mxCell>
                <mxCell id="2" value="" style="endArrow=open;html=1;edgeStyle=orthogonalEdgeStyle;endFill=0;endSize=12;" parent="WIyWlLk6GJQsqaUBKTNV-1" source="q7pYmEnO_Y2Cruu0NZZ4-110" target="q7pYmEnO_Y2Cruu0NZZ4-15" edge="1">
                    <mxGeometry relative="1" as="geometry">
                        <mxPoint x="520" y="2366" as="sourcePoint"/>
                        <mxPoint x="680" y="2366" as="targetPoint"/>
                        <Array as="points">
                            <mxPoint x="800" y="2396"/>
                        </Array>
                    </mxGeometry>
                </mxCell>
                <mxCell id="3" value="playerOnTurn" style="edgeLabel;resizable=0;html=1;align=left;verticalAlign=bottom;" parent="2" connectable="0" vertex="1">
                    <mxGeometry x="-1" relative="1" as="geometry">
                        <mxPoint x="10" y="-4" as="offset"/>
                    </mxGeometry>
                </mxCell>
                <mxCell id="5" value="" style="endArrow=open;html=1;edgeStyle=orthogonalEdgeStyle;endSize=12;endFill=0;" parent="WIyWlLk6GJQsqaUBKTNV-1" source="q7pYmEnO_Y2Cruu0NZZ4-110" target="q7pYmEnO_Y2Cruu0NZZ4-7" edge="1">
                    <mxGeometry relative="1" as="geometry">
                        <mxPoint x="270" y="2366" as="sourcePoint"/>
                        <mxPoint x="120" y="2336" as="targetPoint"/>
                    </mxGeometry>
                </mxCell>
                <mxCell id="6" value="gBHandler" style="edgeLabel;resizable=0;html=1;align=left;verticalAlign=bottom;" parent="5" connectable="0" vertex="1">
                    <mxGeometry x="-1" relative="1" as="geometry">
                        <mxPoint x="-70" y="-4" as="offset"/>
                    </mxGeometry>
                </mxCell>
                <mxCell id="8" value="1" style="endArrow=open;html=1;edgeStyle=orthogonalEdgeStyle;endSize=12;endFill=0;" parent="WIyWlLk6GJQsqaUBKTNV-1" source="q7pYmEnO_Y2Cruu0NZZ4-7" target="q7pYmEnO_Y2Cruu0NZZ4-0" edge="1">
                    <mxGeometry x="0.5533" y="-10" relative="1" as="geometry">
                        <mxPoint x="230" y="2036" as="sourcePoint"/>
                        <mxPoint x="390" y="2036" as="targetPoint"/>
                        <Array as="points">
                            <mxPoint x="260" y="2026"/>
                            <mxPoint x="260" y="2026"/>
                        </Array>
                        <mxPoint y="1" as="offset"/>
                    </mxGeometry>
                </mxCell>
                <mxCell id="9" value="gameBoard" style="edgeLabel;resizable=0;html=1;align=left;verticalAlign=bottom;" parent="8" connectable="0" vertex="1">
                    <mxGeometry x="-1" relative="1" as="geometry">
                        <mxPoint y="-6" as="offset"/>
                    </mxGeometry>
                </mxCell>
                <mxCell id="14" value="1..9" style="endArrow=open;html=1;edgeStyle=orthogonalEdgeStyle;endSize=12;endFill=0;" parent="WIyWlLk6GJQsqaUBKTNV-1" source="q7pYmEnO_Y2Cruu0NZZ4-7" target="q7pYmEnO_Y2Cruu0NZZ4-0" edge="1">
                    <mxGeometry x="0.7241" y="-10" relative="1" as="geometry">
                        <mxPoint x="230" y="2036" as="sourcePoint"/>
                        <mxPoint x="390" y="2036" as="targetPoint"/>
                        <Array as="points">
                            <mxPoint x="210" y="2046"/>
                            <mxPoint x="210" y="2046"/>
                        </Array>
                        <mxPoint as="offset"/>
                    </mxGeometry>
                </mxCell>
                <mxCell id="15" value="history" style="edgeLabel;resizable=0;html=1;align=left;verticalAlign=bottom;" parent="14" connectable="0" vertex="1">
                    <mxGeometry x="-1" relative="1" as="geometry">
                        <mxPoint x="-20" y="-6" as="offset"/>
                    </mxGeometry>
                </mxCell>
                <mxCell id="20" value="Use" style="endArrow=open;endSize=12;dashed=1;html=1;edgeStyle=elbowEdgeStyle;" parent="WIyWlLk6GJQsqaUBKTNV-1" source="q7pYmEnO_Y2Cruu0NZZ4-0" target="q7pYmEnO_Y2Cruu0NZZ4-19" edge="1">
                    <mxGeometry width="160" relative="1" as="geometry">
                        <mxPoint x="450" y="1876" as="sourcePoint"/>
                        <mxPoint x="610" y="1876" as="targetPoint"/>
                        <Array as="points">
                            <mxPoint x="560" y="1946"/>
                            <mxPoint x="380" y="1936"/>
                        </Array>
                    </mxGeometry>
                </mxCell>
                <mxCell id="21" value="Use" style="endArrow=open;endSize=12;dashed=1;html=1;edgeStyle=elbowEdgeStyle;" parent="WIyWlLk6GJQsqaUBKTNV-1" source="q7pYmEnO_Y2Cruu0NZZ4-34" target="q7pYmEnO_Y2Cruu0NZZ4-0" edge="1">
                    <mxGeometry width="160" relative="1" as="geometry">
                        <mxPoint x="320" y="1766" as="sourcePoint"/>
                        <mxPoint x="480" y="1766" as="targetPoint"/>
                        <Array as="points">
                            <mxPoint x="210" y="1730"/>
                        </Array>
                    </mxGeometry>
                </mxCell>
                <mxCell id="37" value="" style="endArrow=open;endFill=1;endSize=12;html=1;edgeStyle=elbowEdgeStyle;" parent="WIyWlLk6GJQsqaUBKTNV-1" source="q7pYmEnO_Y2Cruu0NZZ4-98" target="q7pYmEnO_Y2Cruu0NZZ4-77" edge="1">
                    <mxGeometry width="160" relative="1" as="geometry">
                        <mxPoint x="710" y="1190" as="sourcePoint"/>
                        <mxPoint x="870" y="1190" as="targetPoint"/>
                        <Array as="points">
                            <mxPoint x="790" y="1120"/>
                        </Array>
                    </mxGeometry>
                </mxCell>
                <mxCell id="39" value="player" style="edgeLabel;html=1;align=center;verticalAlign=middle;resizable=0;points=[];" parent="37" vertex="1" connectable="0">
                    <mxGeometry x="-0.7609" y="1" relative="1" as="geometry">
                        <mxPoint x="-9" y="-33" as="offset"/>
                    </mxGeometry>
                </mxCell>
                <mxCell id="40" value="2" style="edgeLabel;html=1;align=center;verticalAlign=middle;resizable=0;points=[];" parent="37" vertex="1" connectable="0">
                    <mxGeometry x="0.75" y="-1" relative="1" as="geometry">
                        <mxPoint x="-8" y="-9" as="offset"/>
                    </mxGeometry>
                </mxCell>
                <mxCell id="q7pYmEnO_Y2Cruu0NZZ4-82" value="Extends" style="endArrow=block;endSize=16;endFill=0;html=1;edgeStyle=elbowEdgeStyle;" parent="WIyWlLk6GJQsqaUBKTNV-1" source="q7pYmEnO_Y2Cruu0NZZ4-71" target="q7pYmEnO_Y2Cruu0NZZ4-77" edge="1">
                    <mxGeometry x="0.5556" y="-20" width="160" relative="1" as="geometry">
                        <mxPoint x="465" y="1470" as="sourcePoint"/>
                        <mxPoint x="625" y="1470" as="targetPoint"/>
                        <Array as="points">
                            <mxPoint x="550" y="1300"/>
                            <mxPoint x="550" y="1250"/>
                            <mxPoint x="575" y="1230"/>
                            <mxPoint x="550" y="1190"/>
                        </Array>
                        <mxPoint x="-20" y="20" as="offset"/>
                    </mxGeometry>
                </mxCell>
                <mxCell id="44" value="" style="endArrow=open;endFill=1;endSize=12;html=1;edgeStyle=elbowEdgeStyle;" parent="WIyWlLk6GJQsqaUBKTNV-1" source="q7pYmEnO_Y2Cruu0NZZ4-39" target="q7pYmEnO_Y2Cruu0NZZ4-34" edge="1">
                    <mxGeometry width="160" relative="1" as="geometry">
                        <mxPoint x="660" y="1666" as="sourcePoint"/>
                        <mxPoint x="820" y="1666" as="targetPoint"/>
                        <Array as="points">
                            <mxPoint x="720" y="1673"/>
                            <mxPoint x="700" y="1656"/>
                        </Array>
                    </mxGeometry>
                </mxCell>
                <mxCell id="45" value="8" style="edgeLabel;html=1;align=center;verticalAlign=middle;resizable=0;points=[];" parent="44" vertex="1" connectable="0">
                    <mxGeometry x="-0.1" y="1" relative="1" as="geometry">
                        <mxPoint x="-43" y="-14" as="offset"/>
                    </mxGeometry>
                </mxCell>
                <mxCell id="46" value="Use" style="endArrow=open;endSize=12;dashed=1;html=1;rounded=1;labelBackgroundColor=default;strokeColor=default;fontFamily=Helvetica;fontSize=11;fontColor=default;shape=connector;edgeStyle=elbowEdgeStyle;" parent="WIyWlLk6GJQsqaUBKTNV-1" source="q7pYmEnO_Y2Cruu0NZZ4-11" target="q7pYmEnO_Y2Cruu0NZZ4-15" edge="1">
                    <mxGeometry width="160" relative="1" as="geometry">
                        <mxPoint x="340" y="2184" as="sourcePoint"/>
                        <mxPoint x="450" y="2184" as="targetPoint"/>
                        <Array as="points">
                            <mxPoint x="490" y="2116"/>
                        </Array>
                    </mxGeometry>
                </mxCell>
                <mxCell id="49" value="Use" style="endArrow=open;endSize=12;dashed=1;html=1;edgeStyle=elbowEdgeStyle;" parent="WIyWlLk6GJQsqaUBKTNV-1" source="q7pYmEnO_Y2Cruu0NZZ4-0" target="q7pYmEnO_Y2Cruu0NZZ4-39" edge="1">
                    <mxGeometry width="160" relative="1" as="geometry">
                        <mxPoint x="300" y="1956" as="sourcePoint"/>
                        <mxPoint x="730" y="1956" as="targetPoint"/>
                        <Array as="points">
                            <mxPoint x="850" y="1856"/>
                            <mxPoint x="390" y="1946"/>
                        </Array>
                    </mxGeometry>
                </mxCell>
                <mxCell id="56" value="gameBoardHandler" style="endArrow=open;endSize=12;html=1;edgeStyle=elbowEdgeStyle;" parent="WIyWlLk6GJQsqaUBKTNV-1" source="q7pYmEnO_Y2Cruu0NZZ4-71" target="q7pYmEnO_Y2Cruu0NZZ4-7" edge="1">
                    <mxGeometry x="-0.7444" y="40" width="160" relative="1" as="geometry">
                        <mxPoint x="180" y="1370" as="sourcePoint"/>
                        <mxPoint x="110" y="1830" as="targetPoint"/>
                        <Array as="points">
                            <mxPoint x="90" y="1390"/>
                            <mxPoint x="100" y="1810"/>
                        </Array>
                        <mxPoint as="offset"/>
                    </mxGeometry>
                </mxCell>
                <mxCell id="62" value="Use" style="endArrow=open;endSize=12;dashed=1;html=1;edgeStyle=elbowEdgeStyle;" parent="WIyWlLk6GJQsqaUBKTNV-1" source="q7pYmEnO_Y2Cruu0NZZ4-110" target="q7pYmEnO_Y2Cruu0NZZ4-77" edge="1">
                    <mxGeometry width="160" relative="1" as="geometry">
                        <mxPoint x="300" y="2110" as="sourcePoint"/>
                        <mxPoint x="450" y="1680" as="targetPoint"/>
                        <Array as="points">
                            <mxPoint x="1160" y="1950"/>
                            <mxPoint x="400" y="2200"/>
                        </Array>
                    </mxGeometry>
                </mxCell>
                <mxCell id="66" value="" style="endArrow=open;endFill=1;endSize=12;html=1;edgeStyle=elbowEdgeStyle;" edge="1" parent="WIyWlLk6GJQsqaUBKTNV-1" source="q7pYmEnO_Y2Cruu0NZZ4-71" target="q7pYmEnO_Y2Cruu0NZZ4-84">
                    <mxGeometry width="160" relative="1" as="geometry">
                        <mxPoint x="570" y="1240" as="sourcePoint"/>
                        <mxPoint x="730" y="1240" as="targetPoint"/>
                        <Array as="points">
                            <mxPoint x="270" y="1150"/>
                        </Array>
                    </mxGeometry>
                </mxCell>
                <mxCell id="67" value="policy" style="edgeLabel;html=1;align=center;verticalAlign=middle;resizable=0;points=[];" vertex="1" connectable="0" parent="66">
                    <mxGeometry x="-0.6308" y="3" relative="1" as="geometry">
                        <mxPoint x="23" y="14" as="offset"/>
                    </mxGeometry>
                </mxCell>
            </root>
        </mxGraphModel>
    </diagram>
</mxfile>